<?xml version="1.0" standalone="no"?>
<!DOCTYPE svg PUBLIC "-//W3C//DTD SVG 20010904//EN"
 "http://www.w3.org/TR/2001/REC-SVG-20010904/DTD/svg10.dtd">
<svg version="1.0" xmlns="http://www.w3.org/2000/svg"
 width="2825.000000pt" height="2825.000000pt" viewBox="0 0 2825.000000 2825.000000"
 preserveAspectRatio="xMidYMid meet">
<metadata>
Created by potrace 1.11, written by Peter Selinger 2001-2013
</metadata>
<g transform="translate(0.000000,2825.000000) scale(0.100000,-0.100000)"
fill="#000000" stroke="none">
<path d="M14045 28188 c-38 -33 -79 -68 -90 -77 -11 -9 -63 -52 -115 -97 -107
-91 -321 -271 -615 -518 -110 -93 -222 -188 -250 -211 -27 -24 -129 -109 -225
-190 -96 -81 -197 -166 -225 -190 -27 -23 -84 -71 -125 -105 -41 -34 -97 -82
-125 -105 -27 -24 -171 -145 -320 -270 -148 -125 -281 -237 -295 -249 -14 -12
-81 -68 -150 -126 -69 -57 -127 -107 -130 -110 -3 -3 -104 -89 -225 -190 -121
-101 -222 -187 -225 -190 -3 -3 -32 -28 -65 -55 -33 -27 -92 -77 -131 -110
-39 -33 -82 -69 -95 -80 -13 -11 -67 -56 -119 -100 -153 -130 -293 -249 -315
-266 -60 -50 -231 -194 -235 -199 -3 -3 -75 -64 -160 -135 -85 -71 -166 -140
-180 -151 -26 -23 -382 -323 -685 -577 -216 -182 -225 -189 -239 -202 -12 -12
-188 -159 -225 -190 -14 -11 -43 -36 -65 -56 -23 -19 -55 -46 -72 -60 -31 -24
-334 -279 -389 -328 -29 -25 -136 -114 -163 -136 -7 -5 -21 -17 -30 -26 -9 -9
-89 -76 -177 -150 -88 -73 -166 -139 -173 -146 -7 -7 -34 -29 -60 -50 -26 -21
-49 -40 -52 -43 -3 -3 -48 -41 -100 -85 -52 -44 -106 -90 -120 -101 -14 -12
-149 -126 -300 -254 -151 -127 -284 -239 -295 -248 -33 -28 -978 -825 -1000
-843 -11 -9 -51 -44 -90 -76 -38 -33 -81 -68 -94 -79 -13 -10 -28 -24 -35 -29
-6 -6 -67 -58 -136 -115 -69 -58 -127 -107 -130 -110 -7 -7 -118 -101 -149
-126 -13 -10 -28 -24 -35 -29 -6 -6 -51 -44 -101 -85 -49 -41 -92 -78 -95 -81
-3 -3 -34 -30 -70 -60 -36 -29 -67 -55 -70 -58 -3 -4 -59 -51 -125 -106 -66
-55 -131 -109 -145 -121 -52 -46 -180 -153 -295 -249 -66 -55 -122 -102 -125
-105 -3 -3 -88 -75 -190 -160 -101 -85 -194 -164 -205 -175 -12 -11 -41 -36
-66 -55 -24 -19 -57 -47 -74 -61 -48 -42 -306 -260 -354 -299 -24 -19 -56 -46
-71 -60 -34 -31 -61 -53 -122 -104 l-48 -38 0 -1119 c0 -616 2 -1119 5 -1119
3 0 38 28 78 63 65 55 108 92 221 188 17 15 130 111 251 214 121 103 234 199
250 214 17 14 57 48 90 76 33 27 65 54 71 60 6 5 35 30 64 55 103 86 197 167
299 255 26 22 100 85 166 140 66 55 126 107 135 115 26 24 129 111 158 134 15
11 29 23 32 26 3 3 41 37 85 75 44 37 105 89 135 115 30 26 107 91 170 145 63
53 138 116 165 140 28 23 271 230 540 460 270 229 501 426 515 438 14 12 55
47 90 77 36 30 70 60 76 65 6 6 32 28 59 50 26 22 66 56 88 75 42 37 53 47
126 108 24 20 65 55 91 77 25 22 71 61 101 86 30 26 179 153 332 283 153 131
281 235 284 232 3 -3 6 -3319 7 -7368 l1 -7363 941 -1 942 -2 0 8065 c0 4544
3 8068 8 8072 9 8 332 292 389 342 69 60 152 134 187 166 21 18 97 85 170 149
73 63 149 130 168 148 29 26 151 133 303 266 16 14 41 36 56 50 40 37 152 136
261 230 52 46 97 86 100 89 3 4 56 51 119 106 149 130 167 146 287 251 55 49
131 117 170 150 108 96 505 446 543 479 19 17 44 39 56 50 55 49 362 319 494
434 35 31 74 65 86 76 11 11 54 49 95 84 41 36 84 73 95 83 42 39 104 94 250
222 274 240 413 363 496 438 37 32 77 68 90 79 13 11 38 33 54 47 17 15 64 56
105 92 41 36 81 70 87 77 7 6 60 53 118 103 58 51 105 97 106 104 4 52 3 2209
-1 2211 -3 2 -36 -24 -75 -57z"/>
<path d="M14415 27137 l0 -1111 120 -104 c66 -57 147 -127 180 -156 33 -29
200 -174 370 -321 171 -148 328 -284 351 -304 22 -20 67 -59 100 -87 136 -118
403 -350 459 -399 52 -46 129 -112 375 -325 30 -26 114 -99 186 -161 72 -63
159 -139 194 -169 35 -30 68 -59 74 -65 6 -5 58 -50 116 -100 58 -49 110 -94
116 -100 19 -18 154 -135 204 -177 14 -12 54 -47 90 -78 36 -31 78 -68 94 -81
16 -13 36 -31 45 -40 9 -8 66 -58 126 -110 61 -51 124 -106 140 -120 61 -53
301 -262 330 -287 17 -14 46 -39 65 -56 20 -17 65 -56 100 -87 36 -31 108 -94
161 -140 53 -46 109 -95 125 -108 37 -31 325 -282 340 -296 6 -5 37 -32 69
-60 82 -70 139 -119 145 -125 3 -3 52 -46 110 -95 57 -50 111 -97 120 -105 9
-8 30 -26 46 -40 32 -28 241 -209 289 -251 17 -15 188 -163 380 -329 193 -167
379 -329 415 -360 36 -32 81 -70 100 -86 19 -16 53 -45 75 -65 22 -20 128
-113 235 -205 108 -93 310 -269 450 -390 140 -122 332 -288 425 -369 94 -81
197 -170 230 -199 33 -30 78 -68 100 -87 22 -19 45 -38 51 -44 15 -14 97 -85
329 -285 110 -95 229 -199 265 -230 36 -31 88 -77 116 -101 27 -24 79 -69 115
-100 35 -31 123 -107 194 -168 72 -62 157 -137 190 -166 33 -29 76 -65 95 -81
19 -16 37 -31 40 -34 3 -3 57 -50 120 -105 63 -55 117 -102 120 -105 3 -3 55
-48 115 -100 94 -81 220 -190 485 -420 30 -27 163 -142 296 -257 370 -320 539
-467 544 -473 3 -3 52 -45 110 -95 58 -49 107 -92 110 -95 3 -3 36 -32 75 -65
38 -33 83 -72 100 -87 16 -16 33 -28 36 -28 3 0 6 502 6 1116 0 989 -2 1117
-15 1131 -9 8 -113 99 -231 201 -119 103 -221 191 -227 197 -13 11 -128 112
-155 135 -9 8 -26 22 -36 30 -21 18 -387 335 -478 414 -33 29 -101 88 -151
132 -50 43 -115 100 -145 126 -45 39 -279 241 -524 453 -33 29 -98 85 -145
126 -47 40 -87 76 -90 79 -3 3 -32 27 -65 55 -33 27 -62 52 -65 56 -3 3 -72
64 -155 135 -82 71 -163 141 -180 155 -16 15 -84 73 -150 130 -66 57 -125 108
-131 114 -6 5 -37 33 -69 60 -69 59 -597 516 -640 554 -48 42 -237 205 -269
232 -16 13 -41 35 -56 49 -14 14 -53 47 -86 74 -32 28 -79 68 -104 90 -25 23
-61 54 -80 70 -19 16 -53 45 -75 65 -23 20 -70 61 -105 91 -66 57 -223 193
-275 239 -64 56 -391 338 -414 357 -13 10 -29 24 -36 31 -7 7 -50 44 -96 84
-46 40 -95 82 -109 95 -14 12 -61 53 -105 90 -44 38 -82 71 -85 74 -3 3 -70
62 -150 130 -80 69 -158 137 -175 151 -39 34 -264 229 -340 294 -32 28 -63 55
-69 60 -17 16 -456 396 -502 435 -23 19 -155 134 -295 256 -140 121 -288 249
-329 284 -41 36 -80 69 -86 75 -6 5 -26 23 -45 39 -19 16 -65 57 -104 91 -38
33 -122 106 -185 160 -63 55 -120 104 -126 110 -6 5 -35 30 -64 54 -29 25 -58
50 -64 56 -6 6 -42 37 -81 70 -38 33 -83 72 -100 87 -16 14 -68 59 -115 99
-47 40 -139 120 -205 177 -192 168 -229 200 -435 378 -107 92 -197 171 -200
174 -3 3 -34 29 -70 59 -36 30 -69 59 -75 65 -5 6 -26 24 -45 40 -19 16 -62
53 -95 82 -33 29 -99 85 -146 126 -117 100 -290 250 -309 268 -9 8 -43 38 -76
66 -146 125 -638 552 -928 804 -98 85 -184 158 -190 162 -8 4 -11 -284 -11
-1105z"/>
<path d="M11531 21660 l-34 -5 1 -8020 c0 -4411 1 -8028 1 -8037 1 -15 65 -16
886 -16 l885 0 1 27 c0 14 0 3148 0 6964 1 3815 4 6937 7 6937 4 0 36 -105 71
-233 75 -272 105 -380 161 -577 23 -80 43 -154 46 -164 2 -11 15 -58 29 -106
14 -48 27 -95 30 -106 6 -25 64 -234 110 -394 20 -69 37 -132 40 -140 2 -8 33
-121 70 -250 36 -129 68 -242 70 -251 2 -9 13 -49 24 -90 12 -41 28 -98 36
-126 8 -29 22 -77 30 -105 29 -102 276 -983 280 -998 4 -19 108 -389 135 -485
12 -38 25 -86 30 -105 6 -19 33 -116 60 -215 53 -187 58 -204 139 -495 41
-142 127 -452 226 -805 8 -27 23 -81 34 -120 11 -38 56 -200 101 -360 44 -159
89 -319 100 -355 10 -36 30 -105 44 -155 13 -49 45 -162 70 -250 25 -88 73
-259 106 -380 34 -121 73 -258 87 -305 13 -47 26 -92 28 -100 1 -8 24 -89 50
-180 25 -91 53 -187 60 -215 7 -27 32 -115 55 -195 23 -80 43 -152 45 -160 3
-14 69 -248 116 -415 11 -38 27 -92 35 -120 7 -27 25 -90 39 -140 15 -49 28
-97 30 -106 2 -9 13 -49 24 -90 12 -41 31 -105 41 -144 11 -38 24 -83 29 -100
5 -16 19 -67 31 -112 13 -46 26 -84 29 -84 3 -1 210 -2 460 -3 445 -1 454 -1
462 19 8 18 96 326 104 364 2 9 29 104 60 211 31 107 58 202 60 210 4 19 150
537 170 605 19 63 146 516 149 530 2 6 8 28 15 50 12 41 299 1057 306 1085 11
43 77 279 85 305 6 17 44 152 85 300 42 149 82 293 90 320 24 79 245 865 260
920 32 121 46 172 55 195 5 14 12 36 14 50 3 14 14 57 26 95 11 39 23 79 26
90 16 59 33 120 116 410 44 154 81 287 83 295 2 8 13 49 25 90 12 41 37 131
56 200 19 69 42 150 51 180 8 30 19 72 24 94 6 21 14 46 18 55 5 9 11 30 14
46 3 17 62 230 132 475 119 419 334 1183 339 1205 2 6 10 35 19 65 8 30 48
170 87 310 75 271 101 363 126 448 8 29 17 61 19 70 2 9 30 112 63 227 33 116
62 219 65 230 2 11 5 -3122 6 -6962 l1 -6981 882 1 883 2 0 6909 0 6908 -100
93 c-55 51 -112 103 -126 116 -15 13 -70 64 -123 113 -53 49 -107 98 -119 108
-12 10 -42 38 -67 61 -43 41 -255 237 -349 322 -48 44 -172 158 -206 190 -12
11 -44 40 -71 64 -27 25 -96 88 -154 142 -58 54 -115 106 -126 116 -12 10 -67
61 -124 113 -133 124 -288 266 -369 339 -14 13 -68 63 -119 110 -52 47 -109
100 -127 116 -18 17 -81 75 -140 130 -116 108 -145 131 -146 118 -1 -12 -6
-32 -24 -93 -9 -30 -18 -64 -20 -75 -2 -11 -52 -195 -110 -410 -58 -214 -114
-421 -124 -460 -10 -38 -40 -146 -65 -240 -25 -93 -82 -305 -126 -470 -44
-165 -84 -316 -90 -335 -14 -47 -134 -493 -275 -1020 -64 -239 -126 -466 -137
-504 -11 -38 -21 -76 -23 -85 -2 -9 -29 -110 -60 -226 -31 -115 -58 -217 -60
-225 -2 -8 -40 -150 -85 -315 -45 -165 -83 -307 -85 -315 -2 -8 -17 -64 -34
-125 -31 -115 -122 -455 -171 -635 -123 -460 -227 -845 -256 -950 -19 -69 -37
-136 -40 -150 -3 -14 -14 -56 -25 -94 -12 -38 -22 -77 -24 -87 -2 -11 -17 -67
-34 -127 -16 -59 -44 -161 -61 -227 -18 -66 -58 -217 -90 -335 -51 -190 -166
-614 -236 -875 -14 -49 -26 -97 -28 -105 -8 -30 -162 -602 -186 -690 -10 -36
-23 -87 -31 -114 l-13 -49 -38 134 c-21 74 -47 166 -58 204 -10 39 -37 135
-60 215 -22 80 -42 152 -44 160 -14 53 -209 748 -213 760 -3 8 -7 20 -8 25 -2
6 -28 102 -60 215 -32 113 -61 219 -65 235 -17 62 -60 216 -115 410 -31 110
-58 207 -60 215 -4 16 -134 479 -166 590 -10 36 -36 128 -58 205 -21 77 -57
205 -79 285 -23 80 -86 307 -142 505 -55 198 -108 389 -119 425 -10 36 -53
189 -96 340 -42 151 -92 330 -112 398 -19 68 -36 131 -38 140 -2 9 -23 82 -46
162 -23 80 -42 150 -44 155 -1 6 -7 30 -14 55 -8 25 -14 50 -15 55 -1 6 -10
37 -20 70 -10 33 -20 67 -22 75 -2 8 -19 71 -39 140 -20 69 -38 134 -40 144
-3 10 -25 91 -51 180 -25 89 -48 168 -50 176 -2 8 -12 47 -23 85 -10 39 -26
95 -34 125 -9 30 -81 289 -162 575 -80 286 -164 585 -187 665 -52 189 -85 304
-148 530 -53 188 -72 255 -109 390 -11 41 -35 126 -53 189 l-33 114 -1145 1
c-630 0 -1160 -1 -1179 -4z"/>
<path d="M8947 4529 c-182 -51 -268 -177 -302 -445 -4 -27 -8 -60 -10 -73 -16
-100 -23 -539 -11 -736 11 -172 18 -225 40 -315 34 -136 108 -245 197 -290 97
-50 279 -59 399 -21 149 47 242 183 276 404 24 159 34 571 20 816 -9 155 -15
208 -40 331 -36 176 -121 283 -261 326 -77 24 -226 25 -308 3z m234 -206 c37
-22 87 -103 99 -160 29 -135 37 -279 35 -628 -2 -470 -20 -582 -107 -662 -77
-71 -205 -59 -261 25 -65 99 -82 244 -82 717 0 316 8 451 31 527 3 9 7 25 9
35 5 26 32 85 47 103 55 65 157 84 229 43z"/>
<path d="M7382 4405 c0 -84 3 -105 14 -106 8 -1 64 -2 125 -3 96 -1 113 -3
118 -18 3 -10 6 -383 5 -830 l-1 -813 114 0 c62 -1 114 2 114 5 1 3 2 376 3
830 l1 825 125 1 c69 1 127 2 130 3 3 0 6 47 5 104 l0 102 -376 3 -376 2 -1
-105z"/>
<path d="M10223 3572 l0 -938 196 2 c212 1 280 12 368 59 124 64 186 165 238
385 1 3 5 28 9 55 4 28 9 61 12 74 27 178 21 642 -11 801 -2 14 -7 39 -10 56
-10 66 -57 189 -91 240 -69 104 -168 174 -276 194 -28 6 -137 10 -243 10
l-192 0 0 -938z m407 710 c69 -34 113 -91 139 -180 18 -61 23 -84 36 -177 20
-136 20 -565 -1 -698 -3 -23 -7 -51 -8 -62 -13 -106 -62 -220 -116 -269 -42
-38 -120 -66 -184 -66 l-41 0 0 733 c0 402 4 737 8 744 12 19 106 5 167 -25z"/>
<path d="M11699 4508 c-1 -2 -2 -423 -3 -935 -1 -617 2 -934 9 -936 26 -9 377
1 430 13 248 52 359 241 392 660 13 174 7 561 -11 645 -2 11 -7 41 -10 66 -8
58 -49 196 -72 240 -47 92 -137 177 -234 219 -52 23 -68 25 -277 28 -123 2
-224 2 -224 0z m385 -216 c93 -32 161 -140 181 -287 3 -22 8 -51 10 -65 12
-69 17 -173 17 -345 0 -376 -29 -551 -109 -667 -29 -42 -105 -84 -168 -93 -22
-3 -45 -8 -51 -10 -35 -11 -35 -1 -37 748 -1 484 1 738 8 740 20 8 101 -4 149
-21z"/>
<path d="M14089 4493 c-1 -10 -3 -27 -4 -38 -1 -11 -5 -60 -9 -110 -5 -49 -9
-103 -11 -120 -4 -30 -11 -114 -20 -215 -9 -104 -16 -185 -20 -220 -5 -44 -15
-160 -20 -225 -4 -63 -14 -178 -20 -230 -3 -22 -7 -74 -11 -115 -3 -41 -8 -91
-10 -110 -2 -19 -6 -71 -9 -115 -4 -44 -8 -89 -10 -100 -4 -25 -19 -213 -20
-240 0 -19 7 -20 108 -20 100 0 107 1 108 20 0 11 2 28 4 37 2 10 6 61 9 115
3 54 8 125 11 158 11 144 16 213 20 260 3 28 7 84 10 125 11 159 18 256 30
409 3 36 7 66 9 68 1 2 10 -41 19 -94 9 -54 19 -107 21 -118 4 -23 96 -518
102 -553 17 -99 29 -164 39 -212 3 -14 7 -41 10 -60 3 -19 11 -62 18 -94 l12
-60 68 -1 c83 -2 76 -13 112 180 15 77 37 194 50 260 13 66 26 132 29 147 2
15 12 63 20 105 9 43 18 92 21 108 3 17 12 64 20 105 8 41 17 89 20 105 13 73
37 176 40 173 2 -2 6 -48 9 -103 4 -55 8 -122 10 -150 5 -64 18 -239 21 -285
7 -107 16 -231 20 -275 3 -27 7 -84 10 -125 9 -146 17 -235 20 -240 2 -3 50
-5 107 -5 l103 0 -2 25 c-1 14 -4 59 -7 100 -4 41 -8 102 -11 135 -4 59 -9
116 -20 233 -7 72 -13 138 -20 227 -3 39 -7 88 -9 110 -3 22 -8 81 -11 130 -4
50 -8 101 -10 115 -3 13 -7 69 -11 125 -3 55 -8 107 -9 116 -2 9 -6 56 -10
105 -4 49 -8 104 -10 122 -2 18 -7 74 -11 124 -3 50 -8 99 -9 107 -2 9 -4 35
-4 59 l-1 42 -105 0 c-98 0 -105 -1 -105 -20 0 -24 1 -17 -15 -87 -7 -32 -16
-78 -20 -103 -3 -25 -8 -52 -11 -61 -3 -10 -7 -30 -9 -45 -2 -16 -8 -54 -14
-84 -6 -30 -12 -66 -15 -80 -3 -14 -23 -122 -45 -240 -22 -118 -43 -228 -45
-245 -3 -16 -8 -39 -10 -50 -2 -11 -7 -40 -12 -65 -4 -25 -8 -47 -9 -50 -1 -3
-5 -27 -10 -55 -5 -27 -10 -53 -11 -57 -1 -5 -2 -17 -3 -28 -2 -43 -19 -16
-29 48 -6 37 -13 78 -16 92 -5 25 -43 235 -72 400 -8 47 -26 146 -40 220 -14
74 -29 160 -35 190 -5 30 -11 66 -14 80 -5 26 -6 31 -28 160 l-13 75 -102 3
c-92 2 -102 1 -103 -15z"/>
<path d="M16027 4503 c-3 -5 -8 -30 -12 -58 -5 -27 -9 -54 -11 -60 -1 -5 -34
-174 -73 -375 -40 -201 -76 -384 -81 -407 -6 -22 -12 -58 -16 -80 -3 -21 -9
-54 -14 -73 -5 -19 -12 -53 -15 -75 -4 -22 -8 -47 -10 -55 -2 -8 -7 -28 -9
-45 -4 -24 -81 -414 -100 -508 -19 -95 -24 -123 -19 -127 2 -3 51 -5 108 -5
l105 0 9 50 c6 27 15 79 21 115 6 36 13 74 15 85 2 11 7 41 11 68 3 26 9 48
13 48 3 1 84 2 179 3 166 1 173 0 178 -19 2 -11 17 -94 32 -185 l28 -165 108
0 c59 0 109 2 111 5 2 3 -5 51 -16 105 -11 55 -22 111 -25 125 -2 14 -9 45
-14 70 -5 25 -12 59 -15 75 -2 17 -40 210 -84 430 -44 220 -82 411 -85 425 -2
14 -10 50 -16 80 -6 30 -13 68 -16 83 -2 16 -25 128 -49 249 -25 122 -45 223
-45 225 0 7 -189 3 -193 -4z m108 -482 c4 -30 9 -63 11 -75 2 -11 6 -38 10
-60 3 -22 7 -43 9 -46 2 -3 7 -33 10 -65 4 -33 9 -62 10 -65 2 -3 6 -26 10
-50 3 -25 13 -83 21 -130 9 -46 17 -96 19 -110 2 -14 11 -65 19 -115 9 -49 16
-94 16 -100 0 -6 -43 -9 -113 -8 -61 1 -127 2 -145 2 l-34 1 7 43 c4 23 9 49
10 58 4 19 11 67 20 124 3 23 7 52 10 65 3 13 7 42 10 65 3 22 13 81 21 130 8
50 17 101 19 115 5 38 17 113 20 130 11 62 19 108 21 125 3 28 4 29 8 24 2 -2
7 -28 11 -58z"/>
<path d="M17184 3573 l1 -938 105 -1 c58 0 110 1 115 3 7 2 10 153 10 439 0
240 3 438 7 440 7 4 45 -111 118 -356 17 -58 35 -116 40 -130 5 -14 21 -65 35
-115 68 -228 79 -261 87 -270 8 -9 238 -16 238 -7 0 2 -21 67 -47 145 -26 78
-48 147 -49 152 -1 6 -11 37 -22 70 -56 164 -172 528 -170 530 2 1 17 9 33 18
54 27 123 97 150 150 14 29 32 85 40 125 15 71 22 282 11 332 -3 14 -9 41 -12
60 -10 57 -60 153 -100 193 -21 20 -63 49 -93 64 -55 27 -61 27 -277 31 l-221
4 1 -939z m387 702 c45 -29 73 -83 87 -167 20 -126 -5 -296 -51 -347 -31 -34
-110 -68 -154 -67 l-38 1 -1 300 c0 165 2 304 4 309 9 17 113 -2 153 -29z"/>
<path d="M18397 4503 c-3 -5 -5 -51 -6 -104 -1 -70 2 -98 11 -101 7 -2 66 -4
131 -3 l117 1 1 -61 c0 -33 0 -405 0 -827 0 -582 3 -767 12 -770 7 -2 59 -4
117 -4 l105 1 1 825 c1 454 2 827 3 830 0 3 52 5 114 5 61 -1 120 1 130 3 15
4 17 18 17 108 l0 104 -374 0 c-206 0 -377 -3 -379 -7z"/>
<path d="M19744 3573 l1 -938 105 -1 c58 0 110 1 115 3 7 2 10 320 10 936 l0
932 -116 3 -116 3 1 -938z"/>
<path d="M20646 3583 c1 -510 2 -933 3 -938 0 -6 42 -10 101 -10 l100 -1 1 26
c0 14 0 298 1 633 0 334 3 607 7 607 4 0 19 -37 33 -82 14 -46 103 -310 198
-588 94 -278 178 -525 187 -550 l15 -46 86 2 c48 1 89 2 92 3 3 0 5 421 5 934
l0 932 -102 3 -103 3 -2 -641 -3 -640 -114 338 c-63 185 -161 472 -217 637
l-101 300 -94 3 -94 3 1 -928z"/>
<path d="M7875 1932 c-79 -8 -163 -43 -226 -94 -58 -48 -132 -198 -144 -293
-2 -11 -5 -41 -8 -65 -6 -42 -11 -114 -22 -320 -10 -178 -5 -542 9 -640 3 -19
8 -54 11 -78 39 -291 176 -436 410 -434 166 2 281 61 353 182 26 43 69 175 77
232 3 24 9 70 13 103 4 33 7 154 7 270 l0 210 -219 0 -220 0 1 -87 c1 -49 2
-98 2 -111 1 -22 4 -22 104 -22 l102 0 -1 -111 c-3 -236 -26 -345 -88 -412
-50 -54 -149 -66 -206 -24 -60 45 -84 111 -96 260 -3 42 -8 93 -10 112 -3 19
-7 186 -9 370 -5 458 18 614 100 697 76 76 200 59 253 -35 22 -39 55 -162 44
-162 -3 0 -1 -5 4 -10 8 -8 44 2 118 32 l107 42 -6 35 c-4 20 -9 47 -11 59
-17 89 -113 205 -207 252 -72 35 -159 50 -242 42z"/>
<path d="M14342 1929 c-24 -4 -68 -19 -97 -33 -143 -65 -214 -200 -241 -461
-3 -33 -9 -87 -14 -120 -9 -66 -5 -709 4 -765 3 -19 8 -57 11 -85 21 -190 110
-352 223 -406 122 -60 336 -59 452 1 108 56 195 202 215 361 4 29 8 61 10 71
18 92 26 651 12 828 -31 388 -105 535 -298 595 -61 19 -212 27 -277 14z m173
-204 c134 -54 168 -221 168 -810 -1 -396 -23 -546 -90 -625 -56 -64 -119 -88
-188 -69 -78 22 -134 105 -150 224 -4 28 -9 61 -11 75 -17 97 -24 619 -12 815
7 101 27 215 48 270 39 102 145 156 235 120z"/>
<path d="M10819 1893 c-1 -10 -1 -1856 0 -1863 1 -3 53 -5 116 -5 l115 0 0
444 c0 315 3 442 11 434 6 -6 30 -75 54 -154 118 -391 176 -581 197 -649 l24
-75 117 0 c84 -1 117 3 117 11 0 7 -39 131 -86 276 -177 544 -194 596 -194
606 0 7 17 20 38 31 103 53 171 161 189 299 8 70 10 264 1 312 -29 172 -96
266 -228 319 -40 16 -469 29 -471 14z m343 -205 c63 -19 110 -77 125 -155 9
-46 10 -248 1 -283 -11 -47 -32 -85 -62 -113 -30 -27 -109 -57 -153 -57 l-23
0 0 310 0 310 36 0 c20 0 54 -5 76 -12z"/>
<path d="M17453 1887 c-5 -9 -8 -1145 -3 -1426 4 -173 35 -272 112 -352 74
-75 164 -107 304 -107 176 0 280 60 340 195 47 106 49 145 49 973 l0 725 -113
2 c-61 1 -113 -1 -113 -5 -1 -4 -2 -338 -4 -742 -1 -404 -5 -750 -9 -767 -3
-18 -8 -47 -11 -64 -15 -83 -60 -119 -150 -119 -117 0 -156 53 -171 231 -4 41
-7 387 -7 771 l0 696 -109 0 c-62 0 -111 -5 -115 -11z"/>
<path d="M20769 1863 c-1 -53 -1 -1726 0 -1788 l1 -51 113 1 112 0 3 411 2
411 48 1 c176 7 267 33 333 96 93 91 134 240 126 460 -5 144 -8 166 -32 248
-32 109 -105 192 -202 228 -48 18 -78 20 -278 20 l-225 0 -1 -37z m377 -183
c87 -37 114 -101 119 -282 8 -245 -51 -338 -220 -350 l-40 -3 -3 320 c-1 176
0 325 2 332 7 16 88 7 142 -17z"/>
</g>
</svg>
