<?xml version="1.0" standalone="no"?>
<!DOCTYPE svg PUBLIC "-//W3C//DTD SVG 20010904//EN"
 "http://www.w3.org/TR/2001/REC-SVG-20010904/DTD/svg10.dtd">
<svg version="1.0" xmlns="http://www.w3.org/2000/svg"
 width="300.000000pt" height="300.000000pt" viewBox="0 0 300.000000 300.000000"
 preserveAspectRatio="xMidYMid meet">
<metadata>
Created by potrace 1.11, written by Peter Selinger 2001-2013
</metadata>
<g transform="translate(0.000000,300.000000) scale(0.100000,-0.100000)"
fill="#000000" stroke="none">
<path d="M1544 2490 c-13 -5 -36 -33 -120 -147 -14 -19 -24 -21 -87 -19 -40 1
-84 -1 -99 -5 -15 -4 -28 -3 -30 1 -2 5 -19 5 -40 1 -21 -5 -38 -5 -38 -1 0 5
-13 5 -30 0 -17 -5 -30 -5 -30 0 0 5 -13 5 -30 0 -20 -6 -30 -5 -30 2 0 7 -5
7 -12 1 -13 -9 -31 -9 -73 -2 -23 4 -85 -19 -85 -32 0 -8 -14 -28 -45 -63 -5
-6 -30 -38 -55 -71 -25 -33 -47 -62 -50 -65 -3 -3 -37 -45 -75 -95 -38 -49
-74 -95 -80 -102 -5 -6 -21 -26 -35 -44 -14 -18 -30 -38 -37 -45 -7 -6 -9 -14
-6 -18 4 -3 2 -6 -4 -6 -5 0 -24 -20 -42 -45 -17 -24 -37 -50 -44 -57 -7 -7
-25 -31 -41 -53 -17 -22 -33 -42 -36 -45 -3 -3 -17 -21 -30 -40 -13 -19 -32
-41 -42 -48 -10 -7 -16 -17 -13 -22 3 -4 2 -10 -3 -12 -4 -1 -25 -25 -47 -53
-22 -27 -44 -55 -50 -61 -5 -7 -19 -24 -30 -40 -11 -15 -26 -33 -32 -40 -10
-9 -10 -13 0 -16 6 -2 281 -3 610 -2 328 0 597 -2 597 -5 0 -10 -77 -160 -90
-176 -7 -8 -9 -15 -4 -15 5 0 4 -4 -1 -8 -6 -4 -35 -56 -65 -117 -30 -60 -57
-112 -60 -115 -3 -3 -34 -61 -69 -130 -35 -69 -66 -127 -70 -130 -3 -3 -7 -12
-9 -20 -2 -13 6 -5 46 45 4 6 19 26 32 45 14 19 31 41 37 48 7 7 13 16 13 20
0 4 13 21 28 39 15 18 43 54 62 80 19 26 37 50 40 53 3 3 21 28 40 55 36 53
38 56 71 95 11 14 28 37 37 53 9 15 20 27 24 27 4 0 8 7 8 15 0 7 6 18 13 22
8 4 22 22 33 38 10 17 27 39 36 49 10 11 18 23 18 26 0 4 72 7 160 6 159 -1
159 -1 179 24 12 14 50 63 86 110 37 47 72 92 78 100 7 8 59 76 117 150 57 74
106 137 110 140 5 5 110 141 147 193 12 17 28 34 35 39 7 4 9 8 3 8 -6 0 -6 3
0 8 6 4 44 50 84 102 41 52 80 100 88 106 7 6 13 15 13 20 0 5 14 24 30 43 17
18 30 35 30 37 0 2 -195 3 -432 1 -238 -2 -439 -2 -445 1 -12 4 66 127 91 144
24 16 -12 23 -120 23 -63 0 -121 -2 -130 -5z m-41 -172 c12 4 49 6 82 6 99 -3
102 -3 87 -13 -8 -4 -13 -12 -12 -16 1 -4 -7 -18 -19 -31 -12 -13 -21 -29 -21
-34 0 -6 -4 -10 -10 -10 -5 0 -10 -7 -10 -15 0 -8 -4 -15 -8 -15 -4 0 -16 -14
-26 -31 l-18 -31 96 4 c94 4 96 4 90 -16 -4 -12 -11 -22 -15 -24 -5 -2 -9 -10
-9 -18 0 -8 -4 -14 -10 -14 -5 0 -9 -3 -8 -7 1 -5 -5 -19 -14 -33 -65 -100
-158 -254 -158 -261 0 -5 -4 -9 -8 -9 -4 0 -14 -15 -22 -32 -7 -18 -15 -35
-17 -38 -5 -9 182 -4 196 5 7 4 16 3 20 -3 4 -6 12 -7 20 -3 14 9 51 3 51 -8
0 -4 -8 -16 -18 -27 -9 -10 -33 -39 -52 -64 -19 -25 -40 -52 -47 -60 -7 -8
-47 -58 -89 -110 -42 -52 -80 -96 -85 -98 -5 -2 -9 -10 -9 -18 0 -29 -48 -47
-122 -46 -39 1 -72 2 -73 4 -2 2 7 23 20 48 72 144 85 172 79 182 -4 6 -9 5
-15 -3 -5 -8 -9 -9 -9 -4 0 11 -80 12 -98 1 -7 -4 -12 -3 -12 3 0 6 -11 6 -29
1 -19 -5 -33 -4 -40 3 -8 8 -11 8 -11 0 0 -6 -9 -9 -20 -6 -20 5 -28 23 -11
23 5 0 13 10 17 22 3 12 26 50 51 85 24 35 41 63 36 63 -4 0 2 7 13 15 10 8
15 15 11 15 -4 0 -3 6 3 13 6 6 35 50 65 97 30 47 59 90 65 97 5 7 10 15 10
19 0 3 9 19 21 35 11 16 18 32 16 36 -3 5 -27 7 -54 6 -26 -1 -83 -4 -125 -6
-43 -2 -78 -1 -78 1 0 5 49 73 59 82 4 3 17 21 31 40 13 19 28 40 32 45 17 20
90 120 97 134 9 15 84 31 89 19 2 -4 13 -4 25 0z"/>
<path d="M2567 2213 c-51 -69 -70 -113 -49 -113 4 0 18 -18 32 -40 14 -22 28
-40 32 -40 5 0 8 -7 8 -15 0 -8 3 -15 8 -15 4 0 18 -18 32 -40 14 -22 28 -40
32 -40 5 0 8 -5 8 -10 0 -6 17 -32 38 -59 20 -27 55 -75 77 -107 22 -31 48
-65 57 -75 9 -9 14 -19 12 -22 -3 -2 2 -7 9 -10 12 -4 11 5 -4 46 -11 29 -24
60 -29 70 -6 10 -8 22 -5 27 3 5 1 11 -5 15 -6 4 -8 11 -5 16 4 5 2 9 -3 9 -6
0 -13 12 -16 28 -4 15 -15 50 -25 77 -21 54 -28 76 -30 88 0 4 -8 21 -16 37
-8 16 -15 31 -14 32 0 3 -16 49 -28 78 -3 8 -7 22 -9 31 -4 20 -42 109 -47
109 -1 0 -29 -35 -60 -77z"/>
<path d="M2359 1723 c-10 -3 -25 -32 -40 -78 -13 -41 -26 -75 -29 -75 -5 0 -9
-18 -12 -57 -1 -7 -6 -13 -11 -13 -6 0 -8 -2 -5 -5 3 -3 -8 -42 -24 -88 -16
-45 -31 -93 -34 -106 -3 -13 -10 -34 -17 -45 -6 -12 -10 -29 -8 -38 1 -10 -3
-18 -10 -18 -7 0 -10 -3 -6 -6 3 -4 0 -23 -8 -43 -7 -20 -16 -45 -21 -56 -4
-11 -8 -24 -9 -30 -2 -5 -13 -41 -26 -80 -13 -38 -23 -72 -24 -75 0 -3 -3 -10
-7 -16 -4 -6 -9 -21 -12 -35 -2 -13 -10 -37 -17 -54 -29 -71 -30 -71 77 -70
l96 0 19 48 c10 26 17 47 14 47 -2 0 2 12 10 27 8 15 12 30 10 34 -3 4 2 12
11 20 11 9 68 13 216 13 l200 1 14 -27 c8 -16 12 -28 8 -28 -4 0 -2 -6 3 -12
5 -7 15 -33 23 -58 7 -25 17 -49 22 -55 12 -13 181 -14 190 -1 3 5 2 16 -2 25
-10 19 -51 129 -55 151 -2 8 -4 15 -5 15 -1 0 -3 7 -5 15 -2 8 -19 60 -38 115
-20 55 -33 103 -31 107 3 5 0 8 -6 8 -6 0 -9 4 -5 9 3 5 1 12 -5 16 -5 3 -10
15 -10 26 0 10 -5 19 -11 19 -5 0 -8 4 -4 10 3 5 -1 25 -9 45 -8 19 -13 35
-10 35 3 0 -1 10 -8 23 -6 12 -13 27 -14 32 -1 6 -16 53 -34 105 -18 52 -33
99 -35 105 -1 5 -5 19 -9 30 -5 11 -13 33 -18 48 -6 15 -20 33 -31 38 -15 8
-18 8 -12 -1 6 -9 3 -9 -12 -2 -11 6 -25 7 -33 2 -7 -4 -24 -4 -36 0 -14 6
-26 5 -29 -1 -4 -5 -11 -6 -18 -2 -16 10 -57 10 -57 0 0 -4 -8 -4 -17 1 -10 5
-25 7 -34 5z m152 -220 c7 -27 13 -54 12 -60 0 -7 3 -13 8 -13 5 0 9 -7 9 -16
0 -8 5 -25 12 -37 6 -12 13 -31 14 -42 1 -11 8 -33 15 -50 7 -16 13 -34 14
-40 0 -5 7 -23 14 -40 7 -16 15 -45 18 -63 3 -18 10 -35 14 -38 5 -3 9 -13 9
-24 0 -17 -11 -18 -164 -19 l-165 0 13 42 c7 23 25 80 40 127 26 82 31 97 35
112 2 4 11 31 22 60 22 57 30 86 31 106 1 6 5 12 10 12 4 0 7 3 7 8 -8 51 16
33 32 -25z"/>
</g>
</svg>
